<svg width="150" height="150" viewBox="0 0 150 150" fill="none" xmlns="http://www.w3.org/2000/svg">
<g clip-path="url(#clip0)">
<path d="M145.575 53.8494H135.135C134.463 53.8494 133.827 54.0059 133.255 54.2772C133.327 55.432 133.364 56.5975 133.364 57.7711V66.4181C134.753 67.6131 135.99 68.9792 137.041 70.4848H145.575C148.009 70.4848 150 68.4938 150 66.0601V58.2741C150 55.8404 148.009 53.8494 145.575 53.8494Z" fill="#DFEBFA"/>
<path d="M140.453 66.0601V58.2741C140.453 55.8404 142.445 53.8494 144.878 53.8494H135.135C134.463 53.8494 133.827 54.0059 133.255 54.2772C133.326 55.432 133.364 56.5978 133.364 57.7711V66.4181C134.753 67.6131 135.99 68.9789 137.041 70.4848H144.878C142.445 70.4848 140.453 68.4938 140.453 66.0601Z" fill="#B1DBFC"/>
<path d="M14.2553 66.4181V57.7711C14.2553 56.4519 14.3065 55.1443 14.3974 53.8494H4.42471C1.99102 53.8494 0 55.8404 0 58.2741V66.0601C0 68.4938 1.99102 70.4848 4.42471 70.4848H10.5782C11.6291 68.9792 12.8663 67.6131 14.2553 66.4181Z" fill="#DFEBFA"/>
<path d="M7.19853 66.0601V58.2741C7.19853 55.8404 9.18984 53.8494 11.6232 53.8494H4.42471C1.99131 53.8494 0 55.8404 0 58.2741V66.0601C0 68.4938 1.99131 70.4848 4.42471 70.4848H10.5782C10.6043 70.4476 10.6315 70.4115 10.6576 70.3746C8.68506 69.9305 7.19853 68.1618 7.19853 66.0601Z" fill="#B1DBFC"/>
<path d="M27.7204 61.5217H119.899C125.26 61.5217 130.178 63.5197 133.968 66.8083V58.0852C133.968 48.8238 131.742 40.0368 127.7 33.3434C123.299 26.0549 117.266 22.0406 110.714 22.0406H36.9059C30.3536 22.0406 24.3214 26.0546 19.9198 33.3434C15.878 40.0371 13.6521 48.8238 13.6521 58.0852V66.8083C17.4416 63.52 22.3594 61.5217 27.7204 61.5217Z" fill="#FF4756"/>
<path d="M23.3566 58.0862C23.3566 48.8248 25.5826 40.0378 29.6244 33.3444C34.026 26.0559 40.0582 22.0416 46.6105 22.0416H36.9056C30.3533 22.0416 24.3211 26.0556 19.9195 33.3444C15.8777 40.0381 13.6518 48.8248 13.6518 58.0862V66.8093C16.3852 64.4374 19.7071 62.7423 23.3566 61.9785V58.0862Z" fill="#FC2D39"/>
<path d="M27.7204 61.5217H119.899C122.144 61.5217 124.311 61.8721 126.351 62.5198V58.0852C126.351 50.2143 124.52 42.8473 121.195 37.3406C118.229 32.4293 114.507 29.7243 110.714 29.7243H36.9059C33.1128 29.7243 29.3903 32.4293 26.4246 37.3406C23.0997 42.8473 21.2687 50.2146 21.2687 58.0852V62.5198C23.3083 61.8721 25.4757 61.5217 27.7204 61.5217Z" fill="#60B8FE"/>
<path d="M30.9732 58.0855C30.9732 50.2146 32.8046 42.8476 36.1292 37.3409C39.0952 32.4293 42.8174 29.7246 46.6104 29.7246H36.9056C33.1125 29.7246 29.39 32.4293 26.4243 37.3409C23.0994 42.8476 21.2684 50.2149 21.2684 58.0855V62.5201C23.3083 61.8724 25.4757 61.522 27.7204 61.522H30.9735V58.0855H30.9732Z" fill="#23A8FE"/>
<path d="M101.044 42.3396C91.7801 42.3396 84.2701 49.9157 84.2701 59.2614C84.2701 60.0284 84.3255 60.782 84.4236 61.5217H92.0607C91.8823 60.7978 91.7862 60.041 91.7862 59.2614C91.7862 54.1031 95.9311 49.9216 101.045 49.9216C106.158 49.9216 110.303 54.1031 110.303 59.2614C110.303 60.041 110.207 60.7978 110.029 61.5217H117.666C117.763 60.7817 117.819 60.0281 117.819 59.2614C117.819 49.9157 110.309 42.3396 101.044 42.3396Z" fill="#23A8FE"/>
<path d="M101.044 42.3396C91.7801 42.3396 84.2701 49.9157 84.2701 59.2614C84.2701 60.0284 84.3255 60.782 84.4236 61.5217H92.0607C91.8823 60.7978 91.7862 60.041 91.7862 59.2614C91.7862 54.1031 95.9311 49.9216 101.045 49.9216C106.158 49.9216 110.303 54.1031 110.303 59.2614C110.303 60.041 110.207 60.7978 110.029 61.5217H117.666C117.763 60.7817 117.819 60.0281 117.819 59.2614C117.819 49.9157 110.309 42.3396 101.044 42.3396Z" fill="#23A8FE"/>
<path d="M92.6977 55.2155C94.1836 49.1077 98.9549 44.3054 105.015 42.8209C103.742 42.5089 102.413 42.3399 101.045 42.3399C91.7807 42.3399 84.2704 49.916 84.2704 59.2617C84.2704 60.0287 84.3258 60.7822 84.4236 61.522H92.0607C91.8823 60.7981 91.7862 60.0413 91.7862 59.2617C91.7859 57.8118 92.1135 56.4396 92.6977 55.2155Z" fill="#0193FA"/>
<path d="M119.899 61.1774H27.7204C15.8223 61.1774 6.08729 70.9122 6.08729 82.8106V104.936C6.40721 104.844 6.74383 104.792 7.09217 104.792H57.4705C58.1387 103.898 59.201 103.315 60.3961 103.315H87.2235C88.4182 103.315 89.4808 103.898 90.1491 104.792H140.527C140.876 104.792 141.212 104.844 141.532 104.936V82.8106C141.532 70.9125 131.797 61.1774 119.899 61.1774Z" fill="#FF656F"/>
<path d="M20.2913 82.8106C20.2913 70.9122 30.0261 61.1774 41.9244 61.1774H27.7204C15.8223 61.1774 6.08729 70.9122 6.08729 82.8106V104.936C6.40721 104.844 6.74354 104.792 7.09217 104.792H20.2913V82.8106Z" fill="#FF4756"/>
<path d="M89.5796 82.3025C93.5912 82.3025 97.3145 80.2178 99.411 76.7974L108.986 61.1774H38.6338L48.2083 76.7974C50.3048 80.2175 54.0281 82.3025 58.0397 82.3025H89.5796Z" fill="#FF4756"/>
<path d="M61.2615 76.7974L51.687 61.1774H38.6338L48.2083 76.7974C50.3048 80.2175 54.0281 82.3025 58.0397 82.3025H71.0933C67.0816 82.3025 63.3583 80.2175 61.2615 76.7974Z" fill="#FC2D39"/>
<path d="M91.7086 93.0633H55.9107C54.6606 93.0633 53.6473 92.0499 53.6473 90.7998C53.6473 89.5494 54.6606 88.5363 55.9107 88.5363H91.7086C92.9587 88.5363 93.9721 89.5497 93.9721 90.7998C93.9721 92.0499 92.9587 93.0633 91.7086 93.0633Z" fill="#FF4756"/>
<path d="M122.039 91.7054C126.912 91.7054 130.862 87.755 130.862 82.882C130.862 78.009 126.912 74.0587 122.039 74.0587C117.166 74.0587 113.216 78.009 113.216 82.882C113.216 87.755 117.166 91.7054 122.039 91.7054Z" fill="#FFD301"/>
<path d="M25.5803 91.7054C30.4533 91.7054 34.4036 87.755 34.4036 82.882C34.4036 78.009 30.4533 74.0587 25.5803 74.0587C20.7073 74.0587 16.7569 78.009 16.7569 82.882C16.7569 87.755 20.7073 91.7054 25.5803 91.7054Z" fill="#FFD301"/>
<path d="M121.968 82.882C121.968 79.602 123.759 76.7423 126.415 75.2215C125.125 74.4829 123.632 74.0584 122.039 74.0584C117.166 74.0584 113.216 78.0088 113.216 82.8817C113.216 87.7547 117.166 91.7051 122.039 91.7051C123.632 91.7051 125.125 91.2809 126.415 90.542C123.759 89.0218 121.968 86.1618 121.968 82.882Z" fill="#FFC20C"/>
<path d="M25.5094 82.882C25.5094 79.602 27.3006 76.7423 29.9566 75.2215C28.6667 74.4829 27.1734 74.0584 25.5803 74.0584C20.7073 74.0584 16.7569 78.0088 16.7569 82.8817C16.7569 87.7547 20.7073 91.7051 25.5803 91.7051C27.1734 91.7051 28.6664 91.2809 29.9566 90.542C27.3006 89.0218 25.5094 86.1618 25.5094 82.882Z" fill="#FFC20C"/>
<path d="M109.917 113.802V123.479C109.917 125.943 111.933 127.959 114.397 127.959H134.225C136.689 127.959 138.706 125.943 138.706 123.479V113.802H109.917Z" fill="#665E68"/>
<path d="M123.116 123.478V113.801H109.917V123.478C109.917 125.943 111.933 127.959 114.397 127.959H127.596C125.132 127.959 123.116 125.943 123.116 123.478Z" fill="#544E55"/>
<path d="M8.91358 113.802V123.479C8.91358 125.943 10.9298 127.959 13.3942 127.959H33.2221C35.6862 127.959 37.7027 125.943 37.7027 123.479V113.802H8.91358Z" fill="#665E68"/>
<path d="M22.1127 123.478V113.801H8.91358V123.478C8.91358 125.943 10.9298 127.959 13.3942 127.959H26.5934C24.1289 127.959 22.1127 125.943 22.1127 123.478Z" fill="#544E55"/>
<path d="M57.0419 112.528V105.462C57.0419 104.646 57.3161 103.893 57.7723 103.283H7.09218C5.08154 103.283 3.43623 104.928 3.43623 106.939V111.051C3.43623 113.062 5.08154 114.707 7.09218 114.707H57.7723C57.3161 114.097 57.0419 113.344 57.0419 112.528Z" fill="#DFEBFA"/>
<path d="M16.6354 111.051V106.939C16.6354 104.928 18.2807 103.283 20.2913 103.283H7.09218C5.08154 103.283 3.43623 104.928 3.43623 106.939V111.051C3.43623 113.062 5.08154 114.707 7.09218 114.707H20.2913C18.2804 114.707 16.6354 113.062 16.6354 111.051Z" fill="#B1DBFC"/>
<path d="M140.527 103.283H89.8471C90.3032 103.893 90.5774 104.646 90.5774 105.462V112.528C90.5774 113.344 90.3032 114.097 89.8471 114.707H140.527C142.538 114.707 144.183 113.062 144.183 111.051V106.939C144.183 104.928 142.538 103.283 140.527 103.283Z" fill="#DFEBFA"/>
<path d="M88.1288 116.184H59.4905C57.4799 116.184 55.8346 114.538 55.8346 112.528V105.462C55.8346 103.451 57.4799 101.806 59.4905 101.806H88.1288C90.1394 101.806 91.7848 103.451 91.7848 105.462V112.528C91.7848 114.539 90.1394 116.184 88.1288 116.184Z" fill="#B1DBFC"/>
<path d="M69.0337 112.528V105.462C69.0337 103.451 70.679 101.806 72.6896 101.806H59.4908C57.4802 101.806 55.8348 103.451 55.8348 105.462V112.528C55.8348 114.538 57.4799 116.184 59.4908 116.184H72.6896C70.6787 116.184 69.0337 114.539 69.0337 112.528Z" fill="#8BCAFF"/>
</g>
<defs>
<clipPath id="clip0">
<rect width="150" height="150" fill="white"/>
</clipPath>
</defs>
</svg>
