<svg width="21" height="25" viewBox="0 0 21 25" fill="none" xmlns="http://www.w3.org/2000/svg">
<path d="M5.67075 0.000183105H10.0308V1.70154H5.67075V0.000183105Z" fill="#F9FAFB"/>
<path d="M17.2983 6.55576H10.4599C8.6174 6.55576 7.11784 8.05474 7.11784 9.89781V16.387C7.11784 16.7231 7.30343 17.0282 7.60193 17.1831C7.73277 17.2516 7.87506 17.2852 8.0162 17.2852C8.17337 17.2852 8.33015 17.2438 8.46996 17.1612L10.8267 15.9718H17.2983C19.1414 15.9718 20.6404 14.4722 20.6404 12.6297V9.89781C20.6404 8.05474 19.1414 6.55576 17.2983 6.55576ZM17.0849 13.1411H13.8792C13.4747 13.1411 13.1464 12.8134 13.1464 12.4085C13.1464 12.0039 13.4747 11.6757 13.8792 11.6757H17.0849C17.4894 11.6757 17.8177 12.0039 17.8177 12.4085C17.8177 12.8134 17.4894 13.1411 17.0849 13.1411ZM17.0849 10.6392H10.6739C10.269 10.6392 9.9411 10.3109 9.9411 9.90659C9.9411 9.50204 10.269 9.17378 10.6739 9.17378H17.0849C17.4894 9.17378 17.8177 9.50204 17.8177 9.90659C17.8177 10.3109 17.4894 10.6392 17.0849 10.6392Z" fill="#F9FAFB"/>
<path d="M7.76634 19.0222C7.49168 19.1526 7.11479 19.1933 6.81496 19.1435C6.12507 18.996 5.64442 18.367 5.64442 17.6615V9.11579C5.67074 6.98948 7.39918 5.07374 10.1976 5.05104H15.6528V2.81849C15.6528 1.26457 14.3887 0 12.8344 0H11.4964V1.76144C11.4964 2.53773 10.8671 3.16715 10.0906 3.16715H5.61104C4.83456 3.16715 4.20513 2.53773 4.20513 1.76144V0H2.86732C1.31302 0 0.0488281 1.26457 0.0488281 2.81849V22.1815C0.0488281 23.7354 1.31302 25 2.86732 25H12.8344C14.3887 25 15.6528 23.7354 15.6528 22.1815V17.5377L10.9417 17.4889L7.76634 19.0222ZM9.2886 22.6652H6.41308C6.00815 22.6652 5.68027 22.3373 5.68027 21.9324C5.68027 21.5281 6.00815 21.1998 6.41308 21.1998H9.2886C9.69353 21.1998 10.0212 21.5281 10.0212 21.9324C10.0212 22.3373 9.69353 22.6652 9.2886 22.6652Z" fill="#F9FAFB"/>
</svg>
