<svg width="21" height="21" viewBox="0 0 21 21" fill="none" xmlns="http://www.w3.org/2000/svg">
<path d="M20.1865 17.6177C18.6115 16.2865 17.7083 14.3406 17.7083 12.2792V9.375C17.7083 5.70937 14.9854 2.675 11.4583 2.16667V1.04167C11.4583 0.465625 10.9917 0 10.4167 0C9.84167 0 9.375 0.465625 9.375 1.04167V2.16667C5.84688 2.675 3.125 5.70937 3.125 9.375V12.2792C3.125 14.3406 2.22188 16.2865 0.6375 17.626C0.232292 17.9729 0 18.4771 0 19.0104C0 20.0156 0.817708 20.8333 1.82292 20.8333H19.0104C20.0156 20.8333 20.8333 20.0156 20.8333 19.0104C20.8333 18.4771 20.601 17.9729 20.1865 17.6177Z" fill="#FFC50D"/>
</svg>
